<?xml version="1.0" encoding="UTF-8" standalone="no"?>
<!-- Created with Inkscape (http://www.inkscape.org/) -->

<svg
   xmlns:dc="http://purl.org/dc/elements/1.1/"
   xmlns:cc="http://creativecommons.org/ns#"
   xmlns:rdf="http://www.w3.org/1999/02/22-rdf-syntax-ns#"
   xmlns:svg="http://www.w3.org/2000/svg"
   xmlns="http://www.w3.org/2000/svg"
   xmlns:sodipodi="http://sodipodi.sourceforge.net/DTD/sodipodi-0.dtd"
   xmlns:inkscape="http://www.inkscape.org/namespaces/inkscape"
   width="400mm"
   height="150mm"
   viewBox="0 0 1417.3228 531.49605"
   id="svg2"
   version="1.1"
   inkscape:version="0.91 r13725"
   sodipodi:docname="NzCreaciones.svg"
   inkscape:export-filename="/home/nerviozzo/git/nzweb/images/titulo/nzcreaciones.png"
   inkscape:export-xdpi="42"
   inkscape:export-ydpi="42">
  <defs
     id="defs4">
    <filter
       inkscape:collect="always"
       style="color-interpolation-filters:sRGB"
       id="filter4229"
       x="-0.036075951"
       width="1.0721519"
       y="-0.035924368"
       height="1.0718487">
      <feGaussianBlur
         inkscape:collect="always"
         stdDeviation="3.3509058"
         id="feGaussianBlur4231" />
    </filter>
  </defs>
  <sodipodi:namedview
     id="base"
     pagecolor="#ffffff"
     bordercolor="#666666"
     borderopacity="1.0"
     inkscape:pageopacity="0.0"
     inkscape:pageshadow="2"
     inkscape:zoom="0.7"
     inkscape:cx="767.70312"
     inkscape:cy="298.02767"
     inkscape:document-units="px"
     inkscape:current-layer="layer1"
     showgrid="false"
     inkscape:window-width="1920"
     inkscape:window-height="1002"
     inkscape:window-x="0"
     inkscape:window-y="23"
     inkscape:window-maximized="1" />
  <metadata
     id="metadata7">
    <rdf:RDF>
      <cc:Work
         rdf:about="">
        <dc:format>image/svg+xml</dc:format>
        <dc:type
           rdf:resource="http://purl.org/dc/dcmitype/StillImage" />
        <dc:title />
      </cc:Work>
    </rdf:RDF>
  </metadata>
  <g
     inkscape:label="Capa 1"
     inkscape:groupmode="layer"
     id="layer1"
     transform="translate(0,-520.86603)">
    <path
       sodipodi:type="star"
       style="opacity:1;fill:#000000;fill-opacity:1;fill-rule:nonzero;stroke:none;stroke-width:1;stroke-linecap:round;stroke-linejoin:round;stroke-miterlimit:4;stroke-dasharray:none;stroke-dashoffset:0;stroke-opacity:1"
       id="path4180-3"
       sodipodi:sides="72"
       sodipodi:cx="1151.4284"
       sodipodi:cy="792.36222"
       sodipodi:r1="263.57236"
       sodipodi:r2="28.99296"
       sodipodi:arg1="-0.0026881656"
       sodipodi:arg2="0.040945066"
       inkscape:flatsided="false"
       inkscape:rounded="0"
       inkscape:randomized="0"
       d="m 1414.9997,791.65372 -234.6027,1.89531 233.6615,21.07915 -233.8752,-18.55888 230.9352,41.36388 -231.3677,-38.87182 226.4514,61.3338 -227.0994,-58.88893 220.244,80.83695 -221.1027,-78.45786 212.3605,99.72487 -213.4233,-97.42967 202.8608,117.85383 -204.1196,-115.65999 191.8173,135.08584 -193.2624,-133.01006 179.3138,151.28978 -180.9344,-149.34785 165.4457,166.3423 -167.2294,-164.54901 150.3184,180.12886 -152.2516,-178.49784 134.0472,192.54452 -136.1152,-191.08821 116.7557,203.49481 -118.9427,-202.22427 98.5757,212.89637 -100.8652,-211.82128 79.6455,220.67768 -82.0199,-219.80622 60.109,226.77952 -62.5504,-226.11832 40.1152,231.15542 -42.6049,-230.70951 19.816,233.77201 -22.335,-233.5448 -0.634,234.6095 -1.8953,-234.6027 -21.0792,233.6615 18.5589,-233.87517 -41.3639,230.93517 38.8718,-231.36768 -61.3338,226.45138 58.889,-227.09944 -80.837,220.24404 78.4579,-221.10273 -99.7249,212.36053 97.4297,-213.42329 -117.8539,202.86079 115.66,-204.11955 -135.0858,191.81725 133.01,-193.26243 L 982.55067,994.72508 1131.8985,813.79067 965.55622,979.23637 1130.1052,812.00699 949.97637,962.32544 1128.4742,810.07381 935.92968,944.12098 1127.0179,808.00583 923.52308,924.76155 1125.7474,805.81879 912.85096,904.39447 1124.6723,803.52933 903.99457,883.17477 1123.8008,801.15489 897.0213,861.26393 1123.1396,798.71354 891.98422,838.8287 1122.6937,796.22384 888.92166,816.03983 1122.4665,793.70476 887.85694,793.07077 1122.4597,791.17546 888.79816,770.09631 1122.6734,788.65519 891.73815,747.29131 1123.1059,786.16313 896.65454,724.82933 1123.7539,783.71825 903.50991,702.88131 1124.6126,781.33916 912.25209,681.6143 1125.6754,779.04396 922.81455,661.19014 1126.9341,776.85013 935.1169,641.76429 1128.3793,774.77434 949.0655,623.48457 1129.9999,772.83242 964.55421,606.49012 1131.7836,771.03912 981.46515,590.91026 1133.7168,769.40811 999.66961,576.86358 1135.7848,767.95179 1019.029,564.45697 l 118.9428,202.22428 -98.5757,-212.89639 100.8652,211.8213 -79.6455,-220.67769 82.0199,219.80623 -60.109,-226.7795 62.5504,226.1183 -40.1152,-231.15539 42.6048,230.70949 -19.8159,-233.77204 22.335,233.54482 0.634,-234.60954 1.8953,234.60274 21.0792,-233.66152 -18.5589,233.87519 41.3639,-230.9352 -38.8718,231.36772 61.3338,-226.45133 -58.889,227.09939 80.837,-220.24402 -78.4579,221.1027 99.7249,-212.36052 -97.4297,213.42329 117.8538,-202.86083 -115.6599,204.11959 135.0858,-191.81724 -133.0101,193.26242 151.2898,-179.31382 -149.3478,180.93441 166.3423,-165.4457 -164.549,167.22938 180.1288,-150.31844 -178.4978,152.25163 192.5445,-134.04717 -191.0882,136.11515 203.4948,-116.75572 -202.2243,118.94276 212.8964,-98.57569 -211.8213,100.86514 220.6777,-79.64543 -219.8062,82.01987 226.7795,-60.10903 -226.1183,62.55039 231.1554,-40.11516 -230.7095,42.60486 233.772,-19.816 -233.5448,22.33508 z"
       inkscape:transform-center-x="-65.586007"
       inkscape:transform-center-y="0.35430975" />
    <path
       sodipodi:type="star"
       style="opacity:1;fill:#c44f4f;fill-opacity:1;fill-rule:nonzero;stroke:none;stroke-width:1;stroke-linecap:round;stroke-linejoin:round;stroke-miterlimit:4;stroke-dasharray:none;stroke-dashoffset:0;stroke-opacity:1"
       id="path4180"
       sodipodi:sides="72"
       sodipodi:cx="1153.7514"
       sodipodi:cy="786.61407"
       sodipodi:r1="263.57236"
       sodipodi:r2="28.99296"
       sodipodi:arg1="-0.0026881656"
       sodipodi:arg2="0.040945066"
       inkscape:flatsided="false"
       inkscape:rounded="0"
       inkscape:randomized="0"
       d="m 1417.3227,785.90555 -234.6027,1.89531 233.6615,21.07915 -233.8752,-18.55888 230.9352,41.36388 -231.3677,-38.87182 226.4513,61.3338 -227.0993,-58.88893 220.244,80.83695 -221.1027,-78.45786 212.3605,99.72487 -213.4233,-97.42967 202.8608,117.85383 -204.1196,-115.65999 191.8173,135.08584 -193.2624,-133.01006 179.3138,151.28978 -180.9344,-149.34785 165.4457,166.3423 -167.2294,-164.549 150.3184,180.12885 -152.2516,-178.49784 134.0472,192.54449 -136.1152,-191.08818 116.7557,203.49478 -118.9427,-202.22424 98.5757,212.89644 -100.8652,-211.82135 79.6455,220.67765 -82.0199,-219.80618 60.109,226.77948 -62.5504,-226.11829 40.1152,231.15539 -42.6049,-230.70948 19.816,233.77208 -22.335,-233.54486 -0.634,234.60956 -1.8953,-234.60277 -21.0792,233.66157 18.5589,-233.87524 -41.3639,230.93524 38.8718,-231.36775 -61.3338,226.45135 58.889,-227.09941 -80.837,220.24401 78.4579,-221.10269 -99.7249,212.36049 97.4297,-213.42326 -117.8539,202.86086 115.66,-204.11962 -135.0858,191.81722 133.01,-193.2624 L 984.87367,988.97692 1134.2215,808.0425 967.87922,973.48821 1132.4282,806.25883 952.29936,956.57727 1130.7972,804.32564 938.25268,938.37281 1129.3409,802.25766 925.84607,919.01338 1128.0704,800.07062 915.17396,898.64631 1126.9953,797.78117 906.31757,877.4266 1126.1238,795.40672 899.3443,855.51576 1125.4626,792.96537 894.30721,833.08053 1125.0167,790.47567 891.24466,810.29167 1124.7895,787.95659 890.17994,787.3226 1124.7827,785.42729 891.12115,764.34814 1124.9964,782.90702 894.06115,741.54314 1125.4289,780.41496 898.97754,719.08116 1126.0769,777.97009 905.83291,697.13314 1126.9356,775.59099 914.57509,675.86613 1127.9984,773.2958 925.13755,655.44197 1129.2571,771.10196 937.43989,636.01612 1130.7023,769.02617 951.3885,617.7364 1132.3229,767.08425 966.87721,600.74195 1134.1066,765.29095 983.78815,585.1621 1136.0398,763.65994 1001.9926,571.11541 1138.1078,762.20362 1021.352,558.70881 l 118.9428,202.22428 -98.5757,-212.8964 100.8652,211.8213 -79.6455,-220.67769 82.0199,219.80623 -60.109,-226.7795 62.5504,226.1183 -40.1152,-231.15538 42.6048,230.70948 -19.8159,-233.77204 22.335,233.54482 0.634,-234.60954 1.8953,234.60274 21.0792,-233.66152 -18.5589,233.87519 41.3639,-230.9352 -38.8718,231.36772 61.3338,-226.45133 -58.889,227.09939 80.837,-220.24402 -78.4579,221.1027 99.7249,-212.36052 -97.4297,213.42329 117.8538,-202.86083 -115.6599,204.11959 135.0858,-191.81724 -133.0101,193.26242 151.2898,-179.31382 -149.3478,180.93442 166.3423,-165.44571 -164.549,167.22938 180.1288,-150.31844 -178.4978,152.25163 192.5445,-134.04717 -191.0882,136.11515 203.4948,-116.75572 -202.2243,118.94276 212.8964,-98.57569 -211.8213,100.86514 220.6777,-79.64543 -219.8062,82.01987 226.7795,-60.10903 -226.1183,62.55039 231.1554,-40.11516 -230.7095,42.60486 233.772,-19.816 -233.5448,22.33508 z"
       inkscape:transform-center-x="-65.586007"
       inkscape:transform-center-y="0.35430975" />
    <path
       style="opacity:0.81600001;fill:#ff3535;fill-opacity:1;fill-rule:nonzero;stroke:none;stroke-width:1;stroke-linecap:round;stroke-linejoin:round;stroke-miterlimit:4;stroke-dasharray:none;stroke-dashoffset:0;stroke-opacity:1;filter:url(#filter4229)"
       d="m 103.92698,719.20598 c 0.37804,11.4569 3.13685,22.64032 5.60156,33.78125 0.26728,1.51009 0.54434,0.3719 0.36876,-0.47512 -0.49151,-8.03437 -2.31882,-15.89983 -3.72918,-23.80316 -0.66531,-3.24288 -1.41367,-6.46813 -2.20403,-9.68265 l -0.037,0.17903 -1.3e-4,6.5e-4 z m -13.839845,1.41407 c 1.874813,6.66898 5.567447,12.60151 8.781997,18.67659 2.678548,4.8736 5.349638,9.75129 8.018778,14.63005 0.64708,-1.01099 -0.6296,-1.86523 -0.6875,-2.84961 -2.60652,-6.23702 -5.94386,-12.1285 -9.033668,-18.13108 -2.37761,-4.48614 -4.831351,-8.93161 -7.333513,-13.34939 0.08463,0.34115 0.169271,0.68229 0.253906,1.02344 z m 27.714845,1.29687 c -2.84195,8.54558 -3.13639,17.62206 -4.0568,26.50481 -0.14374,2.3339 -0.1961,4.67272 -0.17563,7.01082 2.47922,-10.9991 3.28229,-22.27277 4.30274,-33.47461 l -0.0273,-0.0469 -0.043,0.006 z m -39.603517,4.00781 c -0.886067,0.65713 -0.430883,2.10425 0.455078,2.53711 7.277339,7.23181 14.226356,14.80455 21.878909,21.65039 0.73054,0.94196 -0.746838,2.47378 -1.639018,1.51572 -2.68506,-1.93086 -5.55199,-3.57938 -8.471615,-5.12391 C 83.1609,742.4555 75.75908,738.6678 68.378151,734.84466 c -0.586861,-1.03714 -2.364399,0.10057 -1.062736,0.80547 1.407256,1.16077 3.201354,1.69583 4.724594,2.68098 7.819379,4.20771 15.655045,8.38681 23.580333,12.39245 1.24702,0.10044 0.94513,2.35803 -0.28125,2.13477 -2.18771,-0.32449 -4.047239,-1.87242 -6.310068,-1.84861 -9.592298,-1.94815 -19.199235,-3.82398 -28.820795,-5.62209 -0.499159,-1.03536 -2.092164,0.54893 -1.105469,1.07031 8.465689,2.24143 17.122861,3.63641 25.741954,5.13584 2.305087,0.36038 4.61802,0.66782 6.927968,0.99502 1.036021,0.57876 0.850749,2.37885 -0.277344,2.74023 0.799445,0.87453 -0.878218,2.2522 -1.570312,1.27344 0.464906,-0.94901 -0.787011,-2.11929 -1.697266,-1.5586 -11.48854,0.6785 -22.944911,1.86341 -34.33789,3.48633 2.803969,1.436 5.976291,0.37258 8.935546,0.26563 8.604975,-0.82978 17.191043,-1.88321 25.71875,-3.3086 0.983368,0.35759 1.217837,1.80009 0.521485,2.53125 0.542131,0.80441 -0.166645,2.1295 0.839843,2.67579 0.976753,0.86949 0.936797,2.62793 -0.11914,3.41796 0.806147,0.74449 2.187876,0.92363 2.5625,2.08008 1.174278,1.3745 3.146978,0.52912 4.649918,1.10049 0.89499,0.18136 1.72415,0.66625 2.65672,0.65928 2.361118,-1.69812 5.091188,-2.98119 6.972658,-5.26563 0.26356,-1.46315 -0.32483,-3.01971 0.3125,-4.42382 -0.0192,-0.91757 -0.43722,-2.13176 -1.50195,-2.22071 -0.95762,-0.33789 -1.54951,-1.22795 -2.40625,-1.72851 0.52795,-1.10848 0.0824,-2.46199 -0.89491,-3.15367 -7.399028,-8.89909 -15.845859,-16.83743 -23.776967,-25.24672 l -0.07813,-0.008 -0.08398,0.0195 z m 51.050777,4.81446 c -2.50838,1.70472 -2.92827,4.92423 -4.13082,7.4887 -2.3568,5.72939 -4.68635,11.47078 -6.86918,17.26911 3.95594,-7.65865 7.43183,-15.55066 10.90625,-23.43555 0.29304,-0.22945 0.82463,-1.3584 0.0937,-1.32226 z m 9.99805,8.9414 c -7.10992,6.01455 -12.84427,13.41806 -18.43555,20.81055 2.69236,-1.64769 4.58767,-4.24156 6.80642,-6.42965 4.14527,-4.51643 7.91187,-9.35884 11.74632,-14.13676 0.0355,-0.0813 0.0224,-0.3021 -0.11719,-0.24414 z m -41.302738,11.89649 c 1.36026,0.64307 -1.47586,1.85186 -0.71158,0.34544 0.14184,-0.23288 0.4388,-0.38399 0.71158,-0.34544 z m 3.988288,0.22656 c 0.49702,0.42332 -0.30536,-0.005 0,0 z m 42.66211,0.89844 c -6.80284,3.33229 -13.12951,7.64057 -18.69336,12.7832 6.50414,-4.48574 13.5075,-8.2424 19.70898,-13.16406 -0.33854,0.12695 -0.67708,0.25391 -1.01562,0.38086 z m -44.25196,0.0273 c 0.88232,0.26596 2.11401,0.42132 2.38477,1.47852 -0.25676,1.02919 -1.88252,1.14166 -2.35742,0.22851 -0.994498,-0.015 -1.870528,1.2866 -2.853518,0.55078 -0.69672,-0.85484 0.42876,-2.15745 1.40039,-1.80664 0.45441,-0.18577 0.90938,-0.52075 1.425778,-0.45117 z m -6.474608,0.1211 c 1.11791,0.23818 0.15447,2.25887 -0.72656,1.48242 -0.374483,-0.5511 -0.01589,-1.5438 0.72656,-1.48242 z m 2.05274,0.40625 c 1.32739,0.31776 0.58438,2.7154 -0.68946,2.21484 -1.05566,-0.4554 -0.54996,-2.62098 0.68946,-2.21484 z m -2.71485,1.42773 c 1.45256,0.31857 0.77864,2.97655 -0.658199,2.48437 -1.198708,-0.45115 -0.746591,-2.89458 0.658199,-2.48437 z m -7.101559,4.52539 c -0.892433,0.54852 0.393836,2.18233 1.076172,1.34961 0.369204,-0.64262 -0.39766,-1.47865 -1.076172,-1.34961 z m -5.603515,2.08398 c -6.478218,2.57062 -12.913919,5.25107 -19.257813,8.13868 1.597082,0.80887 3.208436,-0.45471 4.614664,-1.09924 5.433133,-2.55351 10.866266,-5.10702 16.299399,-7.66053 -0.552084,0.20703 -1.104167,0.41406 -1.65625,0.62109 z m 3.601562,2.18555 c -0.491857,0.39309 0.318252,-0.0761 0,0 z m -2.974609,2.04492 c -3.989322,2.83065 -7.440126,6.32788 -10.773438,9.88868 4.395418,-3.75324 9.04182,-7.23474 13.033203,-11.43165 -0.753255,0.51433 -1.50651,1.02865 -2.259765,1.54297 z"
       id="path4199"
       inkscape:connector-curvature="0"
       sodipodi:nodetypes="ccccccccccccccccccccccccccccccccccccccccccccccccc" />
    <flowRoot
       xml:space="preserve"
       id="flowRoot4136-4"
       style="font-style:normal;font-variant:normal;font-weight:normal;font-stretch:normal;font-size:137.5px;line-height:125%;font-family:Cretino;-inkscape-font-specification:Cretino;letter-spacing:0px;word-spacing:0px;opacity:1;fill:#000000;fill-opacity:1;stroke:none;stroke-width:1px;stroke-linecap:butt;stroke-linejoin:miter;stroke-opacity:1"
       transform="translate(27.129167,639.03241)"><flowRegion
         id="flowRegion4138-3"><rect
           id="rect4140-0"
           width="1474.2854"
           height="404.28574"
           x="4.2857156"
           y="61.496033"
           style="font-style:normal;font-variant:normal;font-weight:normal;font-stretch:normal;font-size:137.5px;font-family:Cretino;-inkscape-font-specification:Cretino;fill:#000000;fill-opacity:1" /></flowRegion><flowPara
         id="flowPara4142-9">NZ CREACIONES    </flowPara></flowRoot>    <flowRoot
       xml:space="preserve"
       id="flowRoot4136"
       style="font-style:normal;font-variant:normal;font-weight:normal;font-stretch:normal;font-size:137.5px;line-height:125%;font-family:Cretino;-inkscape-font-specification:Cretino;letter-spacing:0px;word-spacing:0px;opacity:1;fill:#61cd98;fill-opacity:1;stroke:none;stroke-width:1px;stroke-linecap:butt;stroke-linejoin:miter;stroke-opacity:1;"
       transform="translate(20.076298,637.57009)"><flowRegion
         id="flowRegion4138"><rect
           id="rect4140"
           width="1474.2854"
           height="404.28574"
           x="4.2857156"
           y="61.496033"
           style="font-style:normal;font-variant:normal;font-weight:normal;font-stretch:normal;font-size:137.5px;font-family:Cretino;-inkscape-font-specification:Cretino;fill:#61cd98;fill-opacity:1;" /></flowRegion><flowPara
         id="flowPara4142">NZ CREACIONES    </flowPara></flowRoot>    <text
       xml:space="preserve"
       style="font-style:normal;font-variant:normal;font-weight:normal;font-stretch:normal;font-size:20px;line-height:125%;font-family:Cantarell;-inkscape-font-specification:Cantarell;letter-spacing:0px;word-spacing:0px;fill:#000000;fill-opacity:1;stroke:none;stroke-width:1px;stroke-linecap:butt;stroke-linejoin:miter;stroke-opacity:1"
       x="1390"
       y="779.50494"
       id="text4152"
       sodipodi:linespacing="125%"><tspan
         sodipodi:role="line"
         id="tspan4154"
         x="1390"
         y="779.50494"> </tspan></text>
  </g>
</svg>
