<?xml version="1.0" encoding="UTF-8" standalone="no"?>
<!-- Created with Inkscape (http://www.inkscape.org/) -->

<svg
   xmlns:dc="http://purl.org/dc/elements/1.1/"
   xmlns:cc="http://creativecommons.org/ns#"
   xmlns:rdf="http://www.w3.org/1999/02/22-rdf-syntax-ns#"
   xmlns:svg="http://www.w3.org/2000/svg"
   xmlns="http://www.w3.org/2000/svg"
   xmlns:sodipodi="http://sodipodi.sourceforge.net/DTD/sodipodi-0.dtd"
   xmlns:inkscape="http://www.inkscape.org/namespaces/inkscape"
   width="400mm"
   height="150mm"
   viewBox="0 0 1417.3228 531.49605"
   id="svg2"
   version="1.1"
   inkscape:version="0.91 r13725"
   sodipodi:docname="Portal WEB.svg"
   inkscape:export-filename="/home/nerviozzo/git/nzweb/images/titulo/portalweb.png"
   inkscape:export-xdpi="42"
   inkscape:export-ydpi="42">
  <defs
     id="defs4">
    <filter
       inkscape:collect="always"
       style="color-interpolation-filters:sRGB"
       id="filter4168"
       x="-0.0068574962"
       width="1.013715"
       y="-0.047982691"
       height="1.0959654">
      <feGaussianBlur
         inkscape:collect="always"
         stdDeviation="3.8398148"
         id="feGaussianBlur4170" />
    </filter>
    <filter
       inkscape:collect="always"
       style="color-interpolation-filters:sRGB"
       id="filter4383"
       x="-0.062123602"
       width="1.1242472"
       y="-0.41295409"
       height="1.8259082">
      <feGaussianBlur
         inkscape:collect="always"
         stdDeviation="34.389852"
         id="feGaussianBlur4385" />
    </filter>
    <filter
       inkscape:collect="always"
       style="color-interpolation-filters:sRGB"
       id="filter4383-0"
       x="-0.0621236"
       width="1.1242472"
       y="-0.41295409"
       height="1.8259082">
      <feGaussianBlur
         inkscape:collect="always"
         stdDeviation="34.389852"
         id="feGaussianBlur4385-1" />
    </filter>
    <filter
       inkscape:collect="always"
       style="color-interpolation-filters:sRGB"
       id="filter4383-3"
       x="-0.0621236"
       width="1.1242472"
       y="-0.41295409"
       height="1.8259082">
      <feGaussianBlur
         inkscape:collect="always"
         stdDeviation="34.389852"
         id="feGaussianBlur4385-2" />
    </filter>
  </defs>
  <sodipodi:namedview
     id="base"
     pagecolor="#ffffff"
     bordercolor="#666666"
     borderopacity="1.0"
     inkscape:pageopacity="0.0"
     inkscape:pageshadow="2"
     inkscape:zoom="0.7"
     inkscape:cx="817.54955"
     inkscape:cy="327.99443"
     inkscape:document-units="px"
     inkscape:current-layer="layer1"
     showgrid="false"
     inkscape:window-width="1920"
     inkscape:window-height="1002"
     inkscape:window-x="0"
     inkscape:window-y="23"
     inkscape:window-maximized="1" />
  <metadata
     id="metadata7">
    <rdf:RDF>
      <cc:Work
         rdf:about="">
        <dc:format>image/svg+xml</dc:format>
        <dc:type
           rdf:resource="http://purl.org/dc/dcmitype/StillImage" />
        <dc:title />
      </cc:Work>
    </rdf:RDF>
  </metadata>
  <g
     inkscape:label="Capa 1"
     inkscape:groupmode="layer"
     id="layer1"
     transform="translate(0,-520.86603)">
    <path
       style="opacity:0.447;fill:#0eff1b;fill-opacity:1;fill-rule:nonzero;stroke:none;stroke-width:1;stroke-linecap:round;stroke-linejoin:round;stroke-miterlimit:4;stroke-dasharray:none;stroke-dashoffset:0;stroke-opacity:1;filter:url(#filter4383-3)"
       d="m 1357.1429,862.00496 c -17.7594,3.73865 -89.1919,141.33814 -98.8979,86.1747 -4.7217,-26.83548 -78.2788,-107.72373 -100.3401,-103.90981 -48.3006,8.35015 -54.614,61.8536 -85.3164,70.9399 -129.23629,38.24701 -182.00989,74.16531 -305.61914,33.24611 -86.35972,-28.58827 -163.41424,-96.20215 -224.10067,-96.83867 -92.94744,-0.9749 44.30969,46.07981 -47.24682,47.91885 -78.06716,-5.65777 -260.0495,86.28852 -339.76237,59.88752 C 77.770887,933.5605 101.91783,789.51391 28.571377,767.71925 95.231547,753.68611 144.47536,890.79953 205.50303,920.19168 c 28.69943,13.82222 69.45078,-85.31208 97.87138,-69.59479 143.49989,79.35901 108.66407,-56.68879 293.86077,-60.40871 55.618,4.04965 170.93326,157.36978 276.96923,163.85888 113.36705,6.9376 245.96719,-146.9877 342.65069,-177.74143 10.5394,-3.35246 -27.3665,23.0158 -20.7449,42.95046 12.3989,37.32783 66.3506,84.32133 80.5648,98.1502 23.7656,23.12127 61.0182,-61.20397 80.4679,-55.40133 z"
       id="path4172-2"
       inkscape:connector-curvature="0"
       sodipodi:nodetypes="cssssscscsscssssc" />
    <path
       style="opacity:0.578;fill:#3aac00;fill-opacity:1;fill-rule:nonzero;stroke:none;stroke-width:1;stroke-linecap:round;stroke-linejoin:round;stroke-miterlimit:4;stroke-dasharray:none;stroke-dashoffset:0;stroke-opacity:1;filter:url(#filter4383-0)"
       d="m 1495.7143,463.43365 c -17.7594,3.73865 -89.1919,141.33818 -98.8979,86.17473 -4.7217,-26.83551 -78.2789,-107.72376 -100.3402,-103.90984 -48.3006,8.35015 -54.614,61.8536 -85.3164,70.9399 -129.2362,38.24706 -182.0098,74.16534 -305.61902,33.24611 -86.35972,-28.58827 -163.41424,-96.20215 -224.10067,-96.83867 -92.94744,-0.9749 44.30969,46.07981 -47.24682,47.91885 -78.06716,-5.65777 -260.04949,86.2886 -339.76236,59.88757 -78.08862,-25.86307 -53.94168,-169.9097 -127.28813,-191.70436 66.66017,-14.03314 115.90398,123.08028 176.93166,152.47243 28.69943,13.82222 69.45078,-85.31208 97.87138,-69.59479 143.49988,79.359 108.66406,-56.68879 293.86076,-60.40871 55.618,4.04965 170.93326,157.36984 276.9692,163.85888 113.3671,6.93767 245.9671,-146.9877 342.6506,-177.74143 10.5394,-3.35246 -27.3665,23.0158 -20.7449,42.95046 12.3989,37.32783 66.3507,84.32133 80.5649,98.1502 23.7656,23.12134 61.0182,-61.20397 80.4679,-55.40133 z"
       id="path4172-9"
       inkscape:connector-curvature="0"
       sodipodi:nodetypes="cssssscscsscssssc"
       transform="matrix(-1,0,0,-1,1561.4286,1217.5814)" />
    <path
       style="opacity:1;fill:#e6ff0e;fill-opacity:1;fill-rule:nonzero;stroke:none;stroke-width:1;stroke-linecap:round;stroke-linejoin:round;stroke-miterlimit:4;stroke-dasharray:none;stroke-dashoffset:0;stroke-opacity:1;filter:url(#filter4383)"
       d="m 1347.1428,783.07635 c -17.7594,3.73865 -89.1919,141.33818 -98.8979,86.17473 -4.7217,-26.83551 -78.2788,-107.72376 -100.3401,-103.90984 -48.3006,8.35015 -54.614,61.8536 -85.3164,70.9399 -129.23621,38.24706 -182.00989,74.16534 -305.61909,33.24611 -86.35972,-28.58827 -163.41424,-96.20215 -224.10067,-96.83867 -92.94744,-0.9749 44.30969,46.07981 -47.24682,47.91885 -78.06716,-5.65777 -260.0495,86.2886 -339.76237,59.88757 C 67.770839,854.63193 91.917774,710.5853 18.571332,688.79064 85.231493,674.7575 134.47531,811.87092 195.50298,841.26307 c 28.69943,13.82222 69.45078,-85.31208 97.87138,-69.59479 143.49989,79.359 108.66407,-56.68879 293.86077,-60.40871 55.618,4.04965 170.93326,157.36984 276.96927,163.85888 113.36703,6.93767 245.9671,-146.9877 342.6506,-177.74143 10.5394,-3.35246 -27.3665,23.0158 -20.7449,42.95046 12.3989,37.32783 66.3506,84.32133 80.5648,98.1502 23.7656,23.12134 61.0182,-61.20397 80.4679,-55.40133 z"
       id="path4172"
       inkscape:connector-curvature="0"
       sodipodi:nodetypes="cssssscscsscssssc" />
    <flowRoot
       xml:space="preserve"
       id="flowRoot4136-3"
       style="font-style:normal;font-variant:normal;font-weight:normal;font-stretch:normal;font-size:180px;line-height:125%;font-family:Cretino;-inkscape-font-specification:Cretino;letter-spacing:0px;word-spacing:0px;fill:#000000;fill-opacity:1;stroke:none;stroke-width:1px;stroke-linecap:butt;stroke-linejoin:miter;stroke-opacity:1;filter:url(#filter4168)"
       transform="translate(4.5921264,612.58986)"><flowRegion
         id="flowRegion4138-4"><rect
           id="rect4140-0"
           width="1325.7142"
           height="405.71429"
           x="45.714287"
           y="60.067463"
           style="font-style:normal;font-variant:normal;font-weight:normal;font-stretch:normal;font-size:180px;font-family:Cretino;-inkscape-font-specification:Cretino;fill:#000000;fill-opacity:1" /></flowRegion><flowPara
         id="flowPara4142-1">PORTAL WEB  </flowPara></flowRoot>    <flowRoot
       xml:space="preserve"
       id="flowRoot4136"
       style="font-style:normal;font-variant:normal;font-weight:normal;font-stretch:normal;font-size:180px;line-height:125%;font-family:Cretino;-inkscape-font-specification:Cretino;letter-spacing:0px;word-spacing:0px;opacity:1;fill:#ecbf6b;fill-opacity:1;stroke:none;stroke-width:1px;stroke-linecap:butt;stroke-linejoin:miter;stroke-opacity:1"
       transform="translate(1.8249724,605.41329)"><flowRegion
         id="flowRegion4138"><rect
           id="rect4140"
           width="1357.1427"
           height="405.71429"
           x="45.714287"
           y="60.067463"
           style="font-style:normal;font-variant:normal;font-weight:normal;font-stretch:normal;font-size:180px;font-family:Cretino;-inkscape-font-specification:Cretino;fill:#ecbf6b;fill-opacity:1" /></flowRegion><flowPara
         id="flowPara4142">PORTAL WEB  </flowPara></flowRoot>  </g>
</svg>
